<svg width="15" height="15" viewBox="0 0 15 15" fill="none" xmlns="http://www.w3.org/2000/svg">
<g clip-path="url(#clip0_2831_1336)">
<path d="M13.6603 13.3928C13.9975 13.3928 14.2896 13.2814 14.538 13.0616L10.2883 8.81169C10.1863 8.8847 10.0875 8.9557 9.99411 9.02321C9.67608 9.25753 9.41796 9.44037 9.21976 9.57139C9.02158 9.70271 8.75791 9.83656 8.42877 9.97322C8.09941 10.11 7.79257 10.1782 7.50792 10.1782H7.49959H7.49126C7.20659 10.1782 6.89975 10.1101 6.57042 9.97322C6.24108 9.83656 5.97741 9.70271 5.77942 9.57139C5.58124 9.44037 5.32326 9.25756 5.00507 9.02321C4.9164 8.95821 4.81806 8.88688 4.71174 8.81055L0.461182 13.0616C0.709523 13.2814 1.00187 13.3928 1.33902 13.3928H13.6603Z" fill="white"/>
<path d="M0.845514 6.13653C0.52751 5.92452 0.245509 5.68171 0 5.4082V11.8741L3.7457 8.12838C2.99635 7.60523 2.03085 6.94204 0.845514 6.13653Z" fill="white"/>
<path d="M14.1632 6.13653C13.0231 6.90822 12.0541 7.57255 11.2561 8.12988L15.0003 11.8742V5.4082C14.7602 5.67621 14.4812 5.91886 14.1632 6.13653Z" fill="white"/>
<path d="M13.6607 1.60742H1.33944C0.909593 1.60742 0.579117 1.75258 0.347606 2.04258C0.115904 2.33273 0.000244141 2.69559 0.000244141 3.13075C0.000244141 3.48225 0.153731 3.86311 0.46057 4.27343C0.767408 4.68359 1.09391 5.00576 1.43991 5.24011C1.62959 5.37412 2.2016 5.77178 3.15594 6.43296C3.67111 6.78996 4.11913 7.10113 4.50413 7.36965C4.83229 7.5983 5.1153 7.79631 5.34896 7.96064C5.37578 7.97946 5.41797 8.00963 5.47396 8.04966C5.53428 8.09299 5.61062 8.14798 5.70479 8.21598C5.88614 8.34713 6.03679 8.45315 6.15678 8.53415C6.27661 8.61516 6.42179 8.70566 6.59211 8.80615C6.76229 8.90651 6.9228 8.98197 7.07346 9.03216C7.22414 9.08233 7.36363 9.10749 7.49195 9.10749H7.50029H7.50862C7.63691 9.10749 7.77643 9.08233 7.92714 9.03216C8.07777 8.98197 8.23815 8.90667 8.40846 8.80615C8.57862 8.70566 8.72361 8.61497 8.84382 8.53415C8.96381 8.45315 9.11446 8.34716 9.29584 8.21598C9.38982 8.14798 9.46615 8.09297 9.52647 8.0498C9.58249 8.0096 9.62465 7.97962 9.65164 7.96064C9.83367 7.83398 10.1173 7.63678 10.4987 7.37196C11.1927 6.8898 12.2147 6.18012 13.569 5.24011C13.9764 4.9556 14.3167 4.61227 14.5902 4.2106C14.8632 3.80894 15.0001 3.38761 15.0001 2.94676C15.0001 2.57843 14.8674 2.26326 14.6025 2.00075C14.3374 1.73858 14.0234 1.60742 13.6607 1.60742Z" fill="white"/>
</g>
<defs>
<clipPath id="clip0_2831_1336">
<rect width="15" height="15" fill="white"/>
</clipPath>
</defs>
</svg>
