<svg width="21" height="21" viewBox="0 0 21 21" fill="none" xmlns="http://www.w3.org/2000/svg">
<path d="M10.7671 2.47798C9.36991 2.49685 6.36357 2.72621 4.68185 4.26712C3.43344 5.50827 2.99722 7.33806 2.94642 9.60407C2.90287 11.8614 2.85206 16.1001 6.93842 17.2549V19.0114C6.93842 19.0114 6.91084 19.7154 7.37536 19.8606C7.94876 20.0421 8.27538 19.4984 8.81974 18.9178L9.83589 17.771C12.6303 18.0032 14.7715 17.4669 15.0182 17.387C15.5844 17.2056 18.7787 16.7984 19.3013 12.5589C19.8384 8.18146 19.04 5.42335 17.6029 4.17495L17.5956 4.17349C17.1601 3.77429 15.4182 2.50411 11.5205 2.48959C11.5205 2.48959 11.2331 2.47145 10.7671 2.47798ZM10.8157 3.7097C11.2113 3.70752 11.4545 3.72421 11.4545 3.72421C14.7497 3.73147 16.3254 4.72584 16.6956 5.05972C17.9077 6.09691 18.5305 8.58429 18.0747 12.2395C17.6392 15.7815 15.048 16.0065 14.5689 16.1589C14.3657 16.2243 12.4786 16.6888 10.1037 16.5364C10.1037 16.5364 8.33344 18.671 7.78182 19.2226C7.69472 19.317 7.59311 19.346 7.52778 19.3315C7.43343 19.3097 7.40439 19.1936 7.41165 19.0339L7.42617 16.1168C3.96329 15.1588 4.16652 11.5427 4.20281 9.6556C4.24636 7.76847 4.60201 6.22103 5.65445 5.17585C7.07487 3.89115 9.62903 3.71695 10.8157 3.7097ZM11.077 5.59682C11.0485 5.59673 11.0202 5.60227 10.9938 5.61313C10.9674 5.624 10.9433 5.63997 10.9231 5.66013C10.9029 5.68029 10.8868 5.70425 10.8759 5.73063C10.8649 5.757 10.8593 5.78528 10.8593 5.81384C10.8593 5.87159 10.8822 5.92698 10.9231 5.96781C10.9639 6.00865 11.0193 6.03159 11.077 6.03159C11.6166 6.02129 12.1529 6.11798 12.655 6.31605C13.157 6.51413 13.6149 6.80968 14.0021 7.18564C14.7932 7.95501 15.1786 8.98567 15.1932 10.3357C15.1932 10.3643 15.1988 10.3926 15.2097 10.419C15.2207 10.4454 15.2367 10.4694 15.2569 10.4897C15.2772 10.5099 15.3012 10.5259 15.3276 10.5369C15.354 10.5478 15.3823 10.5534 15.4109 10.5534V10.5469C15.4686 10.5469 15.524 10.524 15.5649 10.4831C15.6057 10.4423 15.6286 10.3869 15.6286 10.3292C15.6556 9.69428 15.553 9.06056 15.3271 8.46659C15.1013 7.87263 14.7569 7.33086 14.3149 6.87426C13.4512 6.03232 12.3617 5.59682 11.077 5.59682ZM8.20715 6.09764C8.0528 6.07564 7.89553 6.10633 7.76077 6.18474H7.75206C7.45448 6.35893 7.18012 6.57668 6.91882 6.86701C6.72285 7.09927 6.61325 7.3308 6.58422 7.55581C6.56714 7.68777 6.57954 7.82188 6.62051 7.94848L6.63503 7.95573C6.85874 8.61343 7.15066 9.24592 7.50601 9.84286C7.96662 10.6789 8.53254 11.4524 9.18991 12.1444L9.21168 12.1735L9.24072 12.1952L9.26249 12.217L9.28426 12.2388C9.97904 12.8978 10.7546 13.4661 11.5924 13.9299C12.5504 14.4525 13.1326 14.6993 13.4809 14.8009V14.8082C13.5826 14.8372 13.6755 14.8517 13.7698 14.8517C14.0672 14.83 14.3488 14.7094 14.5697 14.5091C14.8527 14.2551 15.0777 13.9735 15.2447 13.6759V13.6687C15.4116 13.3566 15.3536 13.0582 15.114 12.855C14.6313 12.4327 14.1087 12.0584 13.5535 11.7372C13.1834 11.534 12.8059 11.6574 12.6535 11.8606L12.3269 12.2736C12.16 12.4769 11.8551 12.4478 11.8551 12.4478L11.8464 12.4551C9.58185 11.8744 8.97942 9.58157 8.97942 9.58157C8.97942 9.58157 8.95039 9.26947 9.16088 9.10979L9.56733 8.78317C9.7633 8.62349 9.90121 8.24606 9.69072 7.87589C9.37002 7.32045 8.99564 6.79778 8.57296 6.31538C8.48102 6.20135 8.35122 6.12409 8.20715 6.09764ZM11.4537 6.74362C11.396 6.74381 11.3407 6.76694 11.3 6.80791C11.2593 6.84888 11.2365 6.90434 11.2367 6.96209C11.2369 7.01984 11.26 7.07515 11.301 7.11585C11.342 7.15654 11.3974 7.1793 11.4552 7.17911C12.1816 7.19172 12.8733 7.49189 13.3786 8.0138C13.6066 8.26531 13.7819 8.55996 13.8941 8.88034C14.0063 9.20073 14.0531 9.54036 14.0318 9.87915C14.032 9.93678 14.0551 9.99198 14.0959 10.0327C14.1367 10.0733 14.192 10.0962 14.2496 10.0962L14.2568 10.1049C14.2855 10.1049 14.3139 10.0992 14.3403 10.0882C14.3668 10.0773 14.3908 10.0611 14.4111 10.0409C14.4313 10.0206 14.4473 9.99646 14.4582 9.96996C14.4691 9.94346 14.4747 9.91507 14.4746 9.88641C14.4964 9.02269 14.2278 8.29687 13.698 7.71621C13.1681 7.13556 12.4278 6.80894 11.4842 6.74362C11.4741 6.74291 11.4639 6.74291 11.4537 6.74362ZM11.8094 7.91872C11.7803 7.91786 11.7513 7.92275 11.724 7.9331C11.6968 7.94345 11.6719 7.95906 11.6507 7.97904C11.6295 7.99903 11.6124 8.02299 11.6005 8.04956C11.5886 8.07614 11.582 8.1048 11.5811 8.13392C11.5803 8.16304 11.5851 8.19204 11.5955 8.21928C11.6058 8.24651 11.6215 8.27143 11.6414 8.29263C11.6614 8.31382 11.6854 8.33088 11.712 8.34281C11.7385 8.35475 11.7672 8.36133 11.7963 8.36219C12.5149 8.39848 12.8633 8.76139 12.9068 9.50899C12.9087 9.56547 12.9325 9.61901 12.9731 9.65828C13.0137 9.69756 13.0681 9.7195 13.1246 9.71947H13.1318C13.1611 9.71856 13.1898 9.71177 13.2164 9.6995C13.2429 9.68723 13.2668 9.66973 13.2864 9.64805C13.3061 9.62637 13.3211 9.60096 13.3307 9.57332C13.3403 9.54569 13.3443 9.5164 13.3423 9.48721C13.2915 8.51461 12.7617 7.96953 11.8181 7.91872C11.8152 7.91866 11.8123 7.91866 11.8094 7.91872Z" fill="#664EF9"/>
</svg>
