<svg width="18" height="19" viewBox="0 0 18 19" fill="none" xmlns="http://www.w3.org/2000/svg">
<g clip-path="url(#clip0_2831_892)">
<path d="M14.7034 10.2305C14.4274 9.88189 14.5064 9.72681 14.7034 9.41522C14.707 9.41167 16.9855 6.26311 17.2203 5.19534L17.2217 5.19463C17.3384 4.8055 17.2217 4.51953 16.6576 4.51953H14.7909C14.3157 4.51953 14.0966 4.76496 13.9793 5.03955C13.9793 5.03955 13.0289 7.31453 11.6844 8.78921C11.2504 9.21533 11.0498 9.35191 10.8129 9.35191C10.6963 9.35191 10.5149 9.21533 10.5149 8.8262V5.19463C10.5149 4.72796 10.3818 4.51953 9.98843 4.51953H7.0533C6.75523 4.51953 6.5781 4.73721 6.5781 4.93995C6.5781 5.38243 7.25035 5.48416 7.32006 6.72907V9.43016C7.32006 10.022 7.21264 10.1309 6.97433 10.1309C6.33979 10.1309 4.79966 7.84664 3.88696 5.23233C3.70271 4.72512 3.52274 4.52024 3.04398 4.52024H1.17662C0.643795 4.52024 0.536377 4.76567 0.536377 5.04026C0.536377 5.52542 1.17092 7.93769 3.48717 11.1247C5.03085 13.3 7.20482 14.4788 9.18245 14.4788C10.3712 14.4788 10.5163 14.217 10.5163 13.7667C10.5163 11.6881 10.4089 11.4917 11.0043 11.4917C11.2803 11.4917 11.7555 11.6283 12.8652 12.6776C14.1336 13.9218 14.3421 14.4788 15.052 14.4788H16.9187C17.4508 14.4788 17.7204 14.217 17.5653 13.7006C17.2103 12.6143 14.8116 10.3798 14.7034 10.2305Z" fill="#664EF9"/>
</g>
<defs>
<clipPath id="clip0_2831_892">
<rect width="17.073" height="17.073" fill="white" transform="translate(0.536377 0.962891)"/>
</clipPath>
</defs>
</svg>
